<svg width="17" height="13" viewBox="0 0 17 13" fill="none" xmlns="http://www.w3.org/2000/svg">
<path d="M8.09829 0C5.95124 0.00224974 3.89282 0.793149 2.37462 2.19918C0.85642 3.60522 0.0024292 5.51157 0 7.5V10H0.0167365V10.492C0.0167365 11.1572 0.30205 11.7951 0.809911 12.2654C1.31777 12.7358 2.00658 13 2.7248 13H4.33582V7H2.7248C2.12826 7.00188 1.54942 7.18784 1.07977 7.5285V7.5C1.07977 5.77609 1.81922 4.12279 3.13545 2.90381C4.45168 1.68482 6.23686 1 8.09829 1C9.95972 1 11.7449 1.68482 13.0611 2.90381C14.3774 4.12279 15.1168 5.77609 15.1168 7.5V7.5155C14.6499 7.18277 14.0777 7.00162 13.4885 7H11.8775V13H13.4885C14.2067 13 14.8955 12.7358 15.4034 12.2654C15.9113 11.7951 16.1966 11.1572 16.1966 10.492V7.5C16.1942 5.51157 15.3402 3.60522 13.822 2.19918C12.3038 0.793149 10.2453 0.00224974 8.09829 0ZM1.45121 11.3905V11.4205C1.44258 11.41 1.43286 11.401 1.42422 11.3905H1.45121Z" fill="white"/>
</svg>
