<svg width="66" height="72" viewBox="0 0 66 72" fill="none" xmlns="http://www.w3.org/2000/svg">
<path d="M12.4522 0C17.3047 0.0659434 21.361 1.718 24.7236 5.04144C25.4202 5.72964 25.5794 6.55765 25.1356 7.12833C24.6795 7.7129 23.7756 7.77537 22.961 7.26666C22.7281 7.11673 22.5108 6.94382 22.3124 6.75052C16.9547 1.64065 8.73801 1.47505 3.15563 6.37122C2.6152 6.84522 2.02468 7.1675 1.28691 7.11792C0.769278 7.08271 0.352793 6.86059 0.11976 6.37866C-0.119223 5.88284 0.0235722 5.43116 0.33544 5.02211C0.475312 4.84719 0.631175 4.68568 0.80101 4.53968C4.15321 1.53058 8.10288 0.074868 12.4522 0Z" fill="white"/>
<path d="M12.7972 5.64238C16.14 5.70981 18.9047 6.97562 21.3634 9.00053C21.6718 9.25439 21.8905 9.59898 22.0368 9.97481C22.2227 10.4518 22.2534 10.9317 21.8945 11.3452C21.5266 11.7682 21.0342 11.8386 20.5146 11.7221C19.9563 11.5971 19.5264 11.252 19.1085 10.8792C15.7751 7.89536 10.8313 7.6891 7.30808 10.3834C6.99224 10.6248 6.70269 10.9005 6.40321 11.1628C5.94359 11.5649 5.42696 11.8158 4.79876 11.7657C3.98066 11.7007 3.50567 11.0101 3.73028 10.2247C3.84786 9.82302 4.07561 9.46232 4.38773 9.18349C6.79491 6.97215 9.5913 5.68948 12.7972 5.64238Z" fill="white"/>
<path d="M13.421 11.5213C14.2779 11.5367 15.1232 11.7225 15.9076 12.0679C16.692 12.4132 17.3998 12.9112 17.9899 13.5328C18.4109 13.9726 18.7014 14.4684 18.5353 15.1194C18.3261 15.9504 17.3285 16.3401 16.6339 15.6955C14.4721 13.6924 11.465 13.6776 9.17284 15.581C8.53324 16.112 8.1227 16.1556 7.61152 15.7461C7.10033 15.3365 6.97638 14.6434 7.31651 14.0107C7.49996 13.6696 7.76819 13.4009 8.06568 13.1579C9.37761 12.088 11.0708 11.5178 13.421 11.5213Z" fill="white"/>
<path d="M2.37981 29.8378C1.07395 29.8378 0 30.9227 0 32.2703V69.5676C0 70.9151 1.07395 72 2.37981 72H63.6466C64.9525 72 66 70.9151 66 69.5676V32.2703C66 30.9227 64.9525 29.8378 63.6466 29.8378H2.37981ZM9.30769 37.1351H56.6923V50.1081H9.30769V37.1351ZM36.3846 56.5946C38.7212 56.5946 40.6154 58.4097 40.6154 60.6486C40.6154 62.8876 38.7212 64.7027 36.3846 64.7027C34.048 64.7027 32.1538 62.8876 32.1538 60.6486C32.1538 58.4097 34.048 56.5946 36.3846 56.5946ZM52.4615 56.5946C54.7981 56.5946 56.6923 58.4097 56.6923 60.6486C56.6923 62.8876 54.7981 64.7027 52.4615 64.7027C50.125 64.7027 48.2308 62.8876 48.2308 60.6486C48.2308 58.4097 50.125 56.5946 52.4615 56.5946Z" fill="white"/>
<path d="M11 19C11 17.8954 11.8954 17 13 17V17C14.1046 17 15 17.8954 15 19V31C15 32.1046 14.1046 33 13 33V33C11.8954 33 11 32.1046 11 31V19Z" fill="white"/>
</svg>
