<svg width="11" height="17" viewBox="0 0 11 17" fill="none" xmlns="http://www.w3.org/2000/svg">
<path d="M8.70876 3.20876C8.70876 1.43661 7.27214 0 5.49999 0C3.72784 0 2.29123 1.43661 2.29123 3.20876V7.91521C2.29123 9.68736 3.72784 11.124 5.49999 11.124C7.27214 11.124 8.70876 9.68736 8.70876 7.91521V3.20876Z" fill="white"/>
<path d="M0.534955 7.22851C0.393076 7.22851 0.257008 7.28487 0.156685 7.38519C0.0563612 7.48552 0 7.62158 0 7.76346C0 10.6155 2.18244 12.9674 4.96504 13.237V15.4601H2.82587C2.75453 15.4584 2.68357 15.4709 2.61715 15.497C2.55073 15.5231 2.49021 15.5622 2.43913 15.612C2.38806 15.6618 2.34747 15.7214 2.31976 15.7872C2.29205 15.8529 2.27777 15.9235 2.27777 15.9949C2.27777 16.0663 2.29205 16.1369 2.31976 16.2027C2.34747 16.2684 2.38806 16.328 2.43913 16.3778C2.49021 16.4276 2.55073 16.4667 2.61715 16.4928C2.68357 16.5189 2.75453 16.5314 2.82587 16.5297H8.17413C8.31369 16.5263 8.44639 16.4684 8.54388 16.3685C8.64137 16.2686 8.69595 16.1345 8.69595 15.9949C8.69595 15.8553 8.64137 15.7212 8.54388 15.6213C8.44639 15.5214 8.31369 15.4635 8.17413 15.4601H6.03496V13.2367C8.81756 12.9668 11 10.6152 11 7.76314C10.9966 7.62358 10.9387 7.49089 10.8388 7.39339C10.7389 7.2959 10.6048 7.24133 10.4652 7.24133C10.3256 7.24133 10.1915 7.2959 10.0916 7.39339C9.99169 7.49089 9.93384 7.62358 9.93041 7.76314C9.93041 10.2058 7.94298 12.1932 5.50032 12.1932C3.05767 12.1932 1.06991 10.2061 1.06991 7.76346C1.06991 7.62158 1.01355 7.48552 0.913226 7.38519C0.812902 7.28487 0.676834 7.22851 0.534955 7.22851Z" fill="white"/>
</svg>
